<svg width="25" height="30" viewBox="0 0 25 30" fill="none" xmlns="http://www.w3.org/2000/svg">
<path d="M12.424 21.5615C12.7021 21.5615 12.974 21.479 13.2053 21.3245C13.4365 21.17 13.6168 20.9503 13.7232 20.6934C13.8296 20.4364 13.8575 20.1536 13.8032 19.8808C13.7489 19.608 13.615 19.3575 13.4183 19.1608C13.2216 18.9642 12.971 18.8303 12.6982 18.776C12.4254 18.7218 12.1426 18.7497 11.8857 18.8561C11.6287 18.9626 11.4091 19.1429 11.2546 19.3742C11.1001 19.6055 11.0177 19.8774 11.0177 20.1555C11.0182 20.5283 11.1665 20.8858 11.4301 21.1494C11.6937 21.413 12.0512 21.5611 12.424 21.5615ZM12.424 19.6865C12.5167 19.6865 12.6073 19.714 12.6844 19.7655C12.7615 19.817 12.8215 19.8902 12.857 19.9758C12.8925 20.0615 12.9018 20.1557 12.8837 20.2466C12.8657 20.3376 12.8211 20.4211 12.7555 20.4866C12.69 20.5522 12.6065 20.5969 12.5156 20.615C12.4247 20.6331 12.3304 20.6239 12.2448 20.5884C12.1591 20.553 12.0859 20.4929 12.0343 20.4159C11.9828 20.3388 11.9553 20.2482 11.9552 20.1555C11.9554 20.0312 12.0049 19.9121 12.0927 19.8243C12.1806 19.7364 12.2997 19.6867 12.424 19.6865ZM23.442 27.1875H1.40625C1.28193 27.1875 1.1627 27.2368 1.07479 27.3248C0.986886 27.4127 0.9375 27.5319 0.9375 27.6562C0.9375 27.7805 0.986886 27.8998 1.07479 27.9877C1.1627 28.0756 1.28193 28.125 1.40625 28.125H23.4417C23.566 28.125 23.6853 28.0756 23.7732 27.9877C23.8611 27.8998 23.9105 27.7805 23.9105 27.6562C23.9105 27.5319 23.8611 27.4127 23.7732 27.3248C23.6853 27.2368 23.5663 27.1875 23.442 27.1875ZM20.16 29.0625H4.6882C4.56388 29.0625 4.44465 29.1118 4.35675 29.1998C4.26884 29.2877 4.21945 29.4069 4.21945 29.5312C4.21945 29.6555 4.26884 29.7748 4.35675 29.8627C4.44465 29.9506 4.56388 30 4.6882 30H20.16C20.2843 30 20.4035 29.9506 20.4915 29.8627C20.5794 29.7748 20.6288 29.6555 20.6288 29.5312C20.6288 29.4069 20.5794 29.2877 20.4915 29.1998C20.4035 29.1118 20.2843 29.0625 20.16 29.0625Z" fill="black"/>
<path d="M24.6506 8.52441L12.6921 0.0857357C12.613 0.0299488 12.5186 0 12.4219 0C12.3251 0 12.2307 0.0299488 12.1516 0.0857357C12.1516 0.0857357 0.194297 8.52909 0.191484 8.53097C0.135006 8.57363 0.0886728 8.62827 0.0558092 8.69096C0.0229455 8.75364 0.00436666 8.82283 0.00140615 8.89355L0 10.7824C0 10.9067 0.0493861 11.0259 0.137294 11.1138C0.225201 11.2017 0.34443 11.2511 0.46875 11.2511H0.959063V15.9532C0.959224 16.0677 1.00144 16.1782 1.0777 16.2637C1.15396 16.3491 1.25895 16.4036 1.37273 16.4168C1.37273 16.4168 0.705469 24.8032 0.705234 24.8074C0.702149 24.8777 0.714305 24.9478 0.740869 25.013C0.767433 25.0782 0.807776 25.1369 0.859133 25.185C0.91049 25.2331 0.971647 25.2696 1.03841 25.2919C1.10518 25.3142 1.17597 25.3217 1.24594 25.3141C1.72828 25.3141 3.9532 25.229 4.55648 23.6828C4.57711 23.6296 4.5682 23.5926 4.63383 23.5891C4.72945 23.5839 4.8307 23.6053 4.92727 23.6053C5.63513 23.589 6.3181 23.3409 6.87141 22.8991C6.93365 22.8457 6.98081 22.777 7.0082 22.6997C7.03559 22.6225 7.04224 22.5394 7.0275 22.4587L5.68289 15.1197C6.75516 14.3594 7.71422 13.155 8.11922 11.2514H8.34141C8.34328 11.2253 8.34492 11.1989 8.34773 11.1745C8.28002 11.08 8.21991 10.9803 8.16797 10.8764C8.10617 10.7535 8.05838 10.6241 8.02547 10.4906C8.00936 10.4324 7.99637 10.3734 7.98656 10.3139H0.9375V9.37636H8.11992C8.18171 9.23737 8.25816 9.10537 8.34797 8.98261C8.32765 8.80168 8.3312 8.61887 8.35851 8.43886H1.94555L12.4219 1.04269L22.898 8.43863H16.4855C16.5129 8.61863 16.5164 8.80145 16.496 8.98238C16.5856 9.10518 16.6619 9.23717 16.7236 9.37613H23.9062V10.3136H16.8572C16.8475 10.3735 16.8344 10.4328 16.818 10.4913C16.755 10.7373 16.6457 10.9691 16.496 11.1743C16.4984 11.1986 16.5 11.2251 16.5021 11.2511H16.7252C17.13 13.1547 18.0893 14.3589 19.1616 15.1197L17.817 22.4587C17.8021 22.5394 17.8087 22.6225 17.8361 22.6998C17.8634 22.7771 17.9106 22.8459 17.9728 22.8993C18.5273 23.3389 19.2096 23.5867 19.917 23.6053C20.1342 23.6062 20.2751 23.6507 20.2877 23.6833C20.8912 25.229 23.1159 25.3141 23.5983 25.3141C23.6682 25.3216 23.7389 25.3139 23.8056 25.2915C23.8723 25.2692 23.9334 25.2327 23.9847 25.1846C24.0361 25.1365 24.0764 25.0779 24.103 25.0128C24.1296 24.9477 24.1419 24.8777 24.139 24.8074L23.4712 16.4165C23.5851 16.4035 23.6901 16.3491 23.7664 16.2636C23.8427 16.1782 23.885 16.0677 23.8852 15.9532V11.2511H24.375C24.4993 11.2511 24.6185 11.2017 24.7064 11.1138C24.7943 11.0259 24.8437 10.9067 24.8438 10.7824V8.95285C24.848 8.87118 24.8327 8.78966 24.7992 8.7151C24.7656 8.64053 24.7146 8.57531 24.6506 8.52441ZM6.05086 22.3314C5.60401 22.6127 5.06811 22.7166 4.54852 22.6228L4.24312 15.8887C4.44042 15.8121 4.63413 15.7265 4.82367 15.6323L6.05086 22.3314ZM1.89656 11.2509H7.15992C6.28523 14.8556 3.09141 15.4 1.89656 15.475V11.2509ZM2.31727 16.3668C2.65432 16.325 2.98853 16.2628 3.31805 16.1805L3.64664 23.4246C3.32742 24.0644 2.35992 24.2941 1.68141 24.3569L2.31727 16.3668ZM20.2957 22.6225C19.7762 22.7172 19.24 22.6133 18.7936 22.3312L20.0205 15.6321C20.2151 15.7284 20.4091 15.8142 20.6006 15.8885L20.2957 22.6225ZM17.6841 11.2507H22.9474V15.4767C21.753 15.4057 18.5599 14.8694 17.6841 11.2507ZM21.1978 23.4243L21.5259 16.1805C21.8555 16.2629 22.1898 16.3251 22.527 16.3668L23.1626 24.3567C22.4843 24.2936 21.5168 24.0646 21.1978 23.4243Z" fill="black"/>
<path d="M8.90771 10.0781C8.9265 10.3442 9.04245 10.594 9.2335 10.7801C9.26948 10.821 9.30336 10.8637 9.33498 10.908C9.33013 10.9656 9.32207 11.0229 9.31084 11.0796C9.24014 11.3318 9.26433 11.6011 9.37881 11.8366C9.52718 12.055 9.75037 12.2115 10.0062 12.2766C10.0595 12.2946 10.1117 12.3155 10.1628 12.3391C10.1864 12.3902 10.2073 12.4424 10.2254 12.4957C10.2905 12.7514 10.4469 12.9744 10.6651 13.1227C10.7936 13.1947 10.9391 13.2312 11.0865 13.2284C11.1993 13.2258 11.3117 13.2133 11.4223 13.1909C11.4794 13.1794 11.537 13.1716 11.5951 13.1674C11.6269 13.1878 11.6829 13.2349 11.7216 13.2675C11.9078 13.4587 12.1578 13.5749 12.424 13.5938C12.6901 13.5749 12.94 13.4589 13.1262 13.268C13.171 13.23 13.239 13.1728 13.2488 13.167C13.3081 13.1707 13.3671 13.1786 13.4253 13.1906C13.5361 13.2131 13.6486 13.2258 13.7616 13.2284C13.909 13.2312 14.0544 13.1948 14.183 13.1229C14.4014 12.9745 14.5579 12.7512 14.6229 12.4952C14.6408 12.442 14.6616 12.3898 14.6853 12.3389C14.7362 12.3153 14.7884 12.2945 14.8416 12.2766C15.0975 12.2116 15.3208 12.0552 15.4693 11.8369C15.5839 11.6012 15.608 11.3316 15.537 11.0794C15.5258 11.0228 15.5177 10.9657 15.5129 10.9083C15.5445 10.8639 15.5784 10.8212 15.6144 10.7803C15.8053 10.5941 15.9213 10.3442 15.9401 10.0781C15.9213 9.81205 15.8053 9.56217 15.6144 9.37594C15.5784 9.33504 15.5445 9.29233 15.5129 9.24797C15.5177 9.19053 15.5258 9.13342 15.537 9.07688C15.6079 8.82478 15.5839 8.55542 15.4695 8.31984C15.321 8.10139 15.0976 7.94483 14.8416 7.87969C14.7884 7.86168 14.7362 7.84079 14.6853 7.81711C14.6616 7.76621 14.6408 7.71402 14.6229 7.66078C14.5579 7.40502 14.4015 7.18192 14.1833 7.03359C14.0545 6.96147 13.9089 6.92499 13.7614 6.92789C13.6485 6.93044 13.536 6.94298 13.4253 6.96539C13.3684 6.97685 13.3109 6.98468 13.253 6.98883C13.2214 6.96844 13.1654 6.92109 13.1265 6.88852C12.9401 6.6975 12.6902 6.5815 12.424 6.5625C12.1578 6.58143 11.9078 6.69754 11.7216 6.88875C11.6769 6.92625 11.6091 6.98344 11.5993 6.98953C11.5399 6.98565 11.4808 6.97767 11.4226 6.96562C11.3118 6.94311 11.1992 6.93048 11.0862 6.92789C10.9389 6.925 10.7934 6.9614 10.6648 7.03336C10.4467 7.18179 10.2904 7.40486 10.2254 7.66055C10.2073 7.71382 10.1864 7.76608 10.1628 7.81711C10.1117 7.84072 10.0595 7.8616 10.0062 7.87969C9.7504 7.94469 9.52722 8.10109 9.37881 8.31937C9.26433 8.55491 9.24014 8.82424 9.31084 9.07641C9.32208 9.13318 9.33014 9.19053 9.33498 9.2482C9.30343 9.29256 9.26964 9.33527 9.23373 9.37617C9.0426 9.56222 8.92657 9.81206 8.90771 10.0781ZM9.95068 9.98039C10.0832 9.84212 10.1829 9.67572 10.2422 9.49359C10.2829 9.30222 10.2802 9.10417 10.2343 8.91398C10.2284 8.88117 10.2212 8.83875 10.216 8.80266C10.2512 8.78812 10.2929 8.77312 10.3252 8.76141C10.5114 8.70703 10.6829 8.61156 10.8272 8.48203C10.957 8.3376 11.0527 8.16588 11.1073 7.97953C11.119 7.94695 11.134 7.90523 11.1483 7.87055C11.1821 7.87523 11.2215 7.88203 11.2599 7.88883C11.4505 7.93116 11.6478 7.93387 11.8395 7.8968C12.0214 7.83727 12.1875 7.73772 12.3258 7.60547C12.3544 7.58133 12.3922 7.54922 12.424 7.52531C12.4557 7.54945 12.4934 7.58133 12.5222 7.60547C12.6607 7.73774 12.827 7.83729 13.009 7.8968C13.2005 7.93381 13.3976 7.9311 13.5879 7.88883C13.6262 7.8818 13.6651 7.87547 13.7 7.87078C13.714 7.90547 13.7293 7.94742 13.741 7.98C13.7955 8.16613 13.8911 8.33767 14.0206 8.48203C14.1649 8.61159 14.3365 8.70707 14.5226 8.76141C14.555 8.77312 14.5969 8.78812 14.6321 8.80266C14.6267 8.83998 14.6204 8.87717 14.6133 8.91422C14.5677 9.10437 14.5651 9.30229 14.6056 9.49359C14.6651 9.6755 14.7648 9.8417 14.8972 9.97992C14.9213 10.0088 14.9532 10.0463 14.9773 10.0781C14.9532 10.11 14.9213 10.1475 14.8972 10.1763C14.7647 10.3146 14.6651 10.4809 14.6056 10.6629C14.5652 10.854 14.5679 11.0518 14.6136 11.2418C14.6197 11.2748 14.6269 11.3173 14.6321 11.3536C14.5969 11.3681 14.555 11.3831 14.5226 11.3948C14.3325 11.4394 14.1586 11.5362 14.0205 11.6742C13.8824 11.8123 13.7856 11.9862 13.741 12.1762C13.7293 12.2088 13.7143 12.2508 13.6997 12.2857C13.666 12.281 13.6266 12.2742 13.5882 12.2674C13.3978 12.2253 13.2008 12.2225 13.0093 12.2592C12.8269 12.3187 12.6603 12.4184 12.5218 12.551C12.4932 12.5749 12.4557 12.6068 12.424 12.6307C12.3922 12.6068 12.3547 12.5749 12.3261 12.551C12.1877 12.4184 12.0212 12.3187 11.839 12.2592C11.7608 12.2388 11.6802 12.2288 11.5993 12.2295C11.4853 12.2321 11.3717 12.2448 11.2599 12.2674C11.2219 12.2745 11.183 12.2808 11.1481 12.2855C11.134 12.2508 11.1188 12.2091 11.1073 12.1767C11.0627 11.9865 10.9659 11.8125 10.8277 11.6744C10.6895 11.5362 10.5155 11.4394 10.3252 11.3948C10.2929 11.3831 10.2509 11.3681 10.216 11.3536C10.2212 11.3173 10.2284 11.2751 10.2343 11.2423C10.2801 11.0524 10.2829 10.8547 10.2425 10.6636C10.1831 10.4811 10.0833 10.3144 9.95045 10.1759C9.92654 10.1473 9.8949 10.1098 9.87076 10.0781C9.8949 10.0465 9.92678 10.009 9.95068 9.98039Z" fill="black"/>
<path d="M12.4242 11.4846C12.7023 11.4846 12.9742 11.4021 13.2054 11.2475C13.4367 11.093 13.6169 10.8733 13.7233 10.6164C13.8297 10.3594 13.8575 10.0767 13.8032 9.80389C13.7489 9.53112 13.6149 9.28057 13.4183 9.08393C13.2216 8.88728 12.971 8.75337 12.6982 8.69913C12.4255 8.64489 12.1427 8.67275 11.8858 8.7792C11.6288 8.88564 11.4092 9.06588 11.2547 9.29713C11.1002 9.52838 11.0177 9.80026 11.0177 10.0784C11.0182 10.4512 11.1665 10.8086 11.4301 11.0723C11.6937 11.3359 12.0514 11.4842 12.4242 11.4846ZM12.4242 9.60963C12.5169 9.60963 12.6076 9.63712 12.6846 9.68863C12.7617 9.74013 12.8218 9.81334 12.8573 9.899C12.8928 9.98465 12.9021 10.0789 12.884 10.1698C12.8659 10.2608 12.8212 10.3443 12.7557 10.4098C12.6901 10.4754 12.6066 10.52 12.5157 10.5381C12.4247 10.5562 12.3305 10.5469 12.2448 10.5114C12.1592 10.476 12.086 10.4159 12.0345 10.3388C11.983 10.2617 11.9555 10.1711 11.9555 10.0784C11.9557 9.95412 12.0051 9.83499 12.093 9.74713C12.1808 9.65926 12.3 9.60981 12.4242 9.60963ZM16.8792 6.56299C17.0035 6.56299 17.1228 6.5136 17.2107 6.42569C17.2986 6.33779 17.348 6.21856 17.348 6.09424C17.348 5.96992 17.2986 5.85069 17.2107 5.76278C17.1228 5.67487 17.0035 5.62549 16.8792 5.62549H16.4102C16.2859 5.62549 16.1667 5.67487 16.0788 5.76278C15.9909 5.85069 15.9415 5.96992 15.9415 6.09424C15.9415 6.21856 15.9909 6.33779 16.0788 6.42569C16.1667 6.5136 16.2859 6.56299 16.4102 6.56299H16.8792ZM8.43164 5.62549H7.96289C7.83857 5.62549 7.71934 5.67487 7.63143 5.76278C7.54353 5.85069 7.49414 5.96992 7.49414 6.09424C7.49414 6.21856 7.54353 6.33779 7.63143 6.42569C7.71934 6.5136 7.83857 6.56299 7.96289 6.56299H8.43164C8.55596 6.56299 8.67519 6.5136 8.7631 6.42569C8.85101 6.33779 8.90039 6.21856 8.90039 6.09424C8.90039 5.96992 8.85101 5.85069 8.7631 5.76278C8.67519 5.67487 8.55596 5.62549 8.43164 5.62549ZM9.28781 22.2499L12.0445 26.0553C12.088 26.1153 12.1451 26.1641 12.2111 26.1978C12.2771 26.2315 12.3501 26.2491 12.4242 26.2491C12.4983 26.2491 12.5714 26.2315 12.6374 26.1978C12.7034 26.1641 12.7604 26.1153 12.8039 26.0553C12.8039 26.0553 15.5236 22.3001 15.5602 22.2497C15.9752 21.6419 16.1901 20.9197 16.1749 20.1839C16.1749 19.1892 15.7798 18.2352 15.0764 17.5318C14.373 16.8284 13.419 16.4332 12.4242 16.4332C11.4295 16.4332 10.4755 16.8284 9.77207 17.5318C9.06868 18.2352 8.67352 19.1892 8.67352 20.1839C8.66457 20.9188 8.87891 21.6392 9.28781 22.2499ZM12.4242 17.3428C13.1737 17.3474 13.8908 17.6491 14.4182 18.1817C14.9455 18.7144 15.2401 19.4344 15.2372 20.1839C15.2372 20.4223 15.198 21.211 14.8015 21.6989L14.802 21.6992C14.7321 21.7946 14.3791 22.2818 12.4242 24.9811L10.047 21.6999C9.75453 21.249 9.60279 20.7213 9.61102 20.1839C9.60815 19.4344 9.90273 18.7143 10.4301 18.1817C10.9575 17.649 11.6747 17.3474 12.4242 17.3428Z" fill="black"/>
</svg>
